# xmcd CD database file
#
# Track frame offsets:
#	150
#	24029
#	55376
#	77220
#	106585
#	127817
#	153724
#	183760
#
# Disc length: 2832 seconds
#
# Revision: 0
# Processed by: cddbd v1.5.2PL0 Copyright (c) Steve Scherf et al.
# Submitted via: CDex 1.51
#
DISCID=530b0e08
DTITLE=Pete McDonald - Pete McDonald
DYEAR=2006
DGENRE=Jazz
TTITLE0=Shuffling for OP
TTITLE1=Skunky
TTITLE2=Two and a half
TTITLE3='Til I met you
TTITLE4=Jimmy the short dentist
TTITLE5=The one with love in the title
TTITLE6=Stung
TTITLE7=Gsus
EXTD=YEAR: 2006
EXTT0=
EXTT1=
EXTT2=
EXTT3=
EXTT4=
EXTT5=
EXTT6=
EXTT7=
PLAYORDER=
